<svg width="103" height="83" viewBox="0 0 103 83" fill="none" xmlns="http://www.w3.org/2000/svg">
<path d="M45.4266 31.3075C45.4266 38.0602 43.9431 44.1989 40.976 49.7237C38.009 55.3509 34.5304 60.2107 30.5402 64.3032C26.4477 68.498 21.946 72.2324 17.035 75.5064C12.124 78.8827 8.18498 81.3382 5.21792 82.8729L0 73.8183C4.1948 71.3628 8.18498 68.805 11.9705 66.1448C15.8584 63.587 18.8255 61.1315 20.8717 58.7784C23.6341 55.709 25.8338 52.4862 27.4708 49.1099C29.1078 45.8359 30.1309 41.4876 30.5402 36.0651H23.1737C16.7281 36.0651 11.7148 34.4281 8.13382 31.1541C4.55289 27.8801 2.76243 23.3272 2.76243 17.4954C2.76243 13.3006 4.39943 9.36157 7.67342 5.67833C10.9474 1.89278 15.398 0 21.0252 0C29.7217 0 35.9627 2.9159 39.7483 8.74769C43.5338 14.4772 45.4266 21.9971 45.4266 31.3075ZM102.21 31.3075C102.21 38.0602 100.726 44.1989 97.7593 49.7237C94.7922 55.3509 91.3136 60.2107 87.3235 64.3032C83.231 68.498 78.7292 72.2324 73.8182 75.5064C68.9073 78.8827 64.9682 81.3382 62.0012 82.8729L56.7833 73.8183C60.9781 71.3628 64.9682 68.805 68.7538 66.1448C72.6417 63.587 75.6087 61.1315 77.655 58.7784C80.4174 55.709 82.6171 52.4862 84.2541 49.1099C85.8911 45.8359 86.9142 41.4876 87.3235 36.0651H79.957C73.5113 36.0651 68.498 34.4281 64.9171 31.1541C61.3362 27.8801 59.5457 23.3272 59.5457 17.4954C59.5457 13.3006 61.1827 9.36157 64.4567 5.67833C67.7307 1.89278 72.1813 0 77.8084 0C86.505 0 92.746 2.9159 96.5316 8.74769C100.317 14.4772 102.21 21.9971 102.21 31.3075Z" fill="#32837E"/>
</svg>
