<svg width="483" height="345" viewBox="0 0 483 345" fill="none" xmlns="http://www.w3.org/2000/svg">
<rect width="483" height="341" fill="#F0F1F6"/>
<path d="M438.772 -67.8897C426.397 -100.088 365.172 -115.989 375.275 -51.8783C376.932 -41.3664 377.099 -23.2657 375.275 -1.23351C373.605 18.9492 340.909 29.9927 330.872 56.071C315.132 96.9695 373.984 125.476 364.619 146.976C352.352 175.135 314.793 187.352 294.017 202.758C274.46 217.261 262.002 240.532 257.219 264.456C248.827 306.429 264.056 350.415 306.006 352.604C327.006 353.699 354.703 344.32 389.484 318.972C405.035 307.638 418.748 298.298 430.935 290.745C462.302 271.307 453.869 317.287 491.168 318.972C512.421 319.932 534.618 280.237 551.421 301.41C563.369 316.466 577.08 334.733 596.661 353.514C631.048 386.496 674.042 391.352 680.123 344.28C682.993 322.059 677.638 288.267 659.27 240.4C647.515 209.767 676.754 210.847 680.123 171.593C683.491 132.338 655.943 114.235 675.885 97.9888L676.285 97.6634C691.485 85.2814 707.697 72.0755 716.55 46.7107C724.176 24.8615 723.448 3.22131 716.55 -13.407C709.168 -31.2029 694.72 -43.2584 675.885 -43.6861C656.987 -44.1151 633.673 -32.8377 608.65 -3.90667C592.152 15.1681 580.979 -29.216 551.421 -24.6788C521.864 -20.1417 517.755 22.6833 500.049 10.2623C469.29 -11.3138 453.266 -30.1794 438.772 -67.8897Z" stroke="white" stroke-opacity="0.66" stroke-width="2"/>
<path d="M498.475 107.747C496.591 102.804 487.814 104.101 487.37 109.459C486.864 115.558 489.947 123.506 489.591 129.62C488.903 141.425 484.732 144.786 476.429 151.008C473.452 153.234 471.556 156.806 470.828 160.479C469.551 166.923 471.869 173.675 478.253 174.011C481.449 174.179 485.664 172.74 490.957 168.848C493.324 167.108 495.411 165.674 497.265 164.515C505.339 159.064 512.854 163.335 515.602 166.152C517.42 168.464 519.507 171.268 522.487 174.151C527.72 179.214 535.645 178.551 535.188 172.733C534.543 164.515 520.512 133.838 535.188 128.489C542.006 126.004 541.782 120.375 540.732 117.823C539.609 115.091 537.41 113.24 534.543 113.174C531.667 113.108 526.903 117.823 524.311 119.281C514.743 124.665 506.205 127.448 498.475 107.747Z" stroke="white" stroke-opacity="0.66" stroke-width="2"/>
<path d="M385.512 -37.8517C376.546 -96.2144 432.495 -81.6658 443.841 -52.1478C457.731 -16.0606 473.088 0.852486 501.945 19.9971C518.173 31.2321 522.079 -7.87013 549.143 -12.1201C576.207 -16.3701 586.547 23.9064 601.689 6.55482C624.718 -19.7613 646.131 -29.8546 663.428 -29.2178C680.613 -28.7135 693.787 -17.5607 700.444 -1.1858C706.659 14.1267 707.172 33.9984 699.923 53.9893C690.462 77.7515 676.8 92.5421 662.924 104.635C644.8 119.679 669.695 136.296 666.395 172.034C663.096 207.771 636.193 206.69 646.65 234.331C663.092 277.622 667.775 308.114 664.997 328.122C659.339 370.822 619.987 366.244 588.406 336.169C570.296 319.016 557.466 302.422 546.227 288.97C530.77 269.811 510.383 306.055 490.831 305.339C456.653 303.982 464.11 262.268 435.377 280.028C424.096 286.974 411.45 295.501 397.156 305.805C364.928 328.837 339.517 336.761 320.526 335.183C282.389 333.026 268.593 292.843 276.313 254.509C280.751 232.594 292.196 211.292 310.127 197.996C329.785 183.418 364.338 171.999 375.562 145.314C384.1 125.478 330.489 99.2247 344.751 61.6975C353.823 37.6539 383.514 27.2895 385.056 8.65164C386.736 -11.6354 386.794 -28.2538 385.512 -37.8517Z" stroke="white" stroke-opacity="0.66" stroke-width="2"/>
<path d="M396.208 -23.2343C388.391 -75.658 438.983 -62.5089 449.283 -35.7689C462.55 -1.42678 477.217 13.4789 504.13 30.1302C518.857 40.1425 522.554 4.89159 547.085 0.942886C571.616 -3.00581 581.108 33.0314 594.872 17.4599C615.872 -6.15498 635.353 -15.0316 651.024 -14.1895C666.533 -13.6105 678.416 -3.39726 684.337 11.5025C689.861 25.4486 690.158 43.4862 683.296 61.5531C673.319 83.4117 662.432 99.7244 650.016 111.393C633.736 125.184 655.943 140.26 652.717 172.364C649.491 204.468 624.963 203.388 634.108 227.948C648.599 266.521 652.602 293.613 649.922 311.343C644.696 349.531 609.043 345.246 580.312 318.179C563.699 302.708 551.77 287.843 541.257 276.039C527.168 258.956 508.622 291.631 490.798 291.16C459.79 290.134 466.26 252.824 440.204 268.848C429.845 275.164 418.286 282.849 405.268 292.089C375.641 312.73 352.553 319.174 335.598 317.12C301.331 315.002 288.987 278.755 296.025 244.184C300.11 224.352 310.527 205.087 326.804 193.043C345.317 179.342 376.815 168.759 386.979 143.639C394.676 125.531 346.386 101.618 359.148 67.5855C367.242 45.6562 393.884 36.0054 395.297 18.9742C396.829 0.499374 397.112 -14.582 396.208 -23.2343Z" stroke="white" stroke-opacity="0.66" stroke-width="2"/>
<path d="M406.442 -9.20691C399.763 -55.8829 445.076 -44.0855 454.345 -20.0264C467.01 12.692 481.01 25.6453 506.021 39.8651C519.269 48.6915 522.763 17.1635 544.799 13.502C566.835 9.84042 575.493 41.7701 587.9 27.9218C606.905 6.92196 624.484 -0.770714 638.552 0.279133C652.411 0.934647 663.019 10.2452 668.214 23.7238C673.055 36.354 673.136 52.623 666.652 68.8315C656.141 88.865 648.015 106.753 637.039 118.038C622.579 130.626 642.13 144.215 638.973 172.803C635.816 201.39 613.626 200.308 621.471 221.878C634.034 255.873 637.364 279.665 634.778 295.183C629.974 328.999 597.965 324.992 572.041 300.832C556.9 286.989 545.852 273.798 536.049 263.597C523.306 248.528 506.571 277.753 490.449 277.525C462.564 276.827 468.057 243.784 444.637 258.129C435.185 263.838 424.693 270.71 412.932 278.92C385.861 297.245 365.059 302.234 350.115 299.697C319.665 297.611 308.754 265.167 315.121 234.235C318.86 216.413 328.264 199.116 342.913 188.28C360.309 175.407 388.799 165.623 397.919 141.977C404.788 125.532 361.744 103.873 373.026 73.2121C380.154 53.3176 403.788 44.346 405.074 28.8598C406.462 12.1304 406.97 -1.46867 406.442 -9.20691Z" stroke="white" stroke-opacity="0.66" stroke-width="2"/>
<path d="M417.133 4.81926C411.604 -36.1071 451.557 -25.6618 459.779 -4.28394C471.82 26.8134 485.128 37.8132 508.193 49.5998C519.939 57.2398 523.224 29.4356 542.726 26.0611C562.228 22.6866 570.037 50.5073 581.065 38.3827C598.041 19.9988 613.685 13.4908 626.127 14.7489C638.31 15.4812 647.626 23.8891 652.084 35.9463C656.234 47.2607 656.099 61.7608 650.003 76.1105C638.978 94.3193 633.628 113.789 624.111 124.69C611.496 136.076 628.358 148.179 625.275 173.248C622.192 198.318 602.378 197.234 608.911 215.812C619.523 245.228 622.174 265.717 619.685 279.022C615.313 308.464 587.004 304.735 563.934 283.484C550.291 271.268 540.143 259.752 531.067 251.156C519.693 238.102 504.8 263.875 490.407 263.892C465.695 263.521 470.201 234.747 449.459 247.412C440.93 252.515 431.524 258.572 421.041 265.753C396.573 281.761 378.095 285.293 365.188 282.273C338.609 280.218 329.151 251.578 334.835 224.285C338.221 208.475 346.597 193.146 359.591 183.517C375.839 171.471 401.272 162.486 409.332 140.313C415.361 125.531 377.639 106.126 387.421 78.8372C393.57 60.9777 414.155 52.6848 415.31 38.7437C416.552 23.7597 417.284 11.6432 417.133 4.81926Z" stroke="white" stroke-opacity="0.66" stroke-width="2"/>
<path d="M427.82 19.5062C423.44 -15.5792 458.032 -6.50927 465.207 12.1394C476.621 41.5452 489.236 50.5671 510.352 59.8946C520.596 66.3311 523.671 42.3129 540.638 39.2331C557.605 36.1532 564.565 59.8028 574.213 49.429C589.159 33.702 602.869 28.3931 613.683 29.8565C624.191 30.6639 632.213 38.1502 635.936 48.7591C639.395 58.7321 639.044 71.4309 633.337 83.8897C621.802 100.233 619.223 121.238 611.165 131.732C600.396 141.89 614.568 152.479 611.56 173.974C608.552 195.47 591.116 194.387 596.337 209.931C604.999 234.703 606.971 251.845 604.579 262.906C600.64 287.909 576.033 284.467 555.816 266.171C543.673 255.61 534.427 245.794 526.079 238.822C516.074 227.812 503.024 250.076 490.361 250.336C468.822 250.294 472.341 225.853 454.278 236.811C446.672 241.296 438.354 246.526 429.149 252.66C407.285 266.315 391.132 268.383 380.262 264.886C357.554 262.868 349.549 238.097 354.55 214.503C357.584 200.739 364.929 187.413 376.269 179.013C391.368 167.822 413.741 159.656 420.741 139.006C425.929 125.921 393.531 108.813 401.812 84.957C406.983 69.1725 424.517 61.5772 425.543 49.2124C426.638 36.0075 427.594 25.4006 427.82 19.5062Z" stroke="white" stroke-opacity="0.66" stroke-width="2"/>
<path d="M438.044 33.533C434.804 4.20011 464.107 11.9175 470.251 27.8839C481.062 55.6715 493.009 62.7383 512.221 69.6304C520.983 74.8797 523.855 54.5871 538.323 51.7941C552.79 49.0012 558.915 68.5394 567.204 59.8903C580.151 46.7805 591.955 42.6572 601.164 44.3295C610.018 45.214 616.764 51.7976 619.759 60.9848C622.534 69.6416 621.966 80.5709 616.637 91.1702C604.566 105.689 604.754 128.281 598.139 138.395C589.193 147.349 600.705 156.451 597.766 174.427C594.826 192.404 579.732 191.318 583.651 203.868C590.38 224.058 591.677 237.895 589.379 246.742C585.864 267.368 564.907 264.203 547.502 248.818C536.832 239.885 528.469 231.745 520.832 226.378C512.176 217.385 500.941 236.196 489.982 236.7C471.572 236.987 474.111 216.816 458.689 226.095C451.991 229.972 444.743 234.388 436.797 239.492C417.492 250.828 403.629 251.438 394.774 247.456C375.89 245.469 369.321 224.504 373.65 204.551C376.337 192.799 382.668 181.441 392.376 174.25C406.357 163.885 425.718 156.517 431.673 137.339C436.03 125.917 408.888 111.064 415.686 90.5811C419.89 76.832 434.411 69.9151 435.308 59.0956C436.259 47.6366 437.441 38.5127 438.044 33.533Z" stroke="white" stroke-opacity="0.66" stroke-width="2"/>
<path d="M448.717 47.5588C446.626 23.9829 470.564 30.347 475.658 43.6299C485.837 69.8049 497.086 74.9142 514.342 79.367C521.598 83.4279 524.26 66.8632 536.19 64.3569C548.12 61.8507 553.393 77.2737 560.301 70.3507C571.214 59.8603 581.082 56.9243 588.662 58.8066C595.838 59.7686 601.289 65.4495 603.549 73.2147C605.632 80.5548 604.849 89.714 599.912 98.4528C587.34 111.147 590.292 135.339 585.138 145.074C578.038 152.826 586.86 160.44 583.997 174.894C581.135 189.348 568.421 188.26 571.029 197.812C575.808 213.415 576.428 223.945 574.229 230.574C571.147 246.82 553.896 243.932 539.349 231.459C530.181 224.156 522.723 217.692 515.816 213.933C508.533 206.958 499.142 222.314 489.917 223.064C474.683 223.68 476.236 207.784 463.496 215.382C457.724 218.652 451.565 222.253 444.899 226.326C428.205 235.342 416.67 234.49 409.852 230.02C394.842 228.063 389.726 210.906 393.371 194.596C395.704 184.857 401.004 175.47 409.056 169.487C421.881 159.947 438.177 153.377 443.071 135.668C446.587 125.91 424.772 113.311 430.069 96.2027C433.295 84.4893 444.764 78.2502 445.531 68.9762C446.335 59.2634 447.74 51.6231 448.717 47.5588Z" stroke="white" stroke-opacity="0.66" stroke-width="2"/>
<path d="M459.091 61.5835C458.139 43.7722 476.84 48.7816 480.914 59.3787C490.52 83.9498 501.135 87.0973 516.533 89.1045C522.325 91.975 524.791 79.1425 534.248 76.9226C543.705 74.7027 548.156 86.0044 553.72 80.8098C562.66 72.9424 570.645 71.1962 576.636 73.2902C582.174 74.3307 586.36 79.1087 587.896 85.4509C589.298 91.4738 588.295 98.8616 583.721 105.738C570.57 116.608 576.313 142.419 572.592 151.779C567.301 158.328 573.478 164.453 570.675 175.381C567.872 186.308 557.47 185.217 558.778 191.765C561.631 202.775 561.574 209.991 559.462 214.397C556.795 226.256 543.157 223.645 531.389 214.088C523.672 208.415 517.077 203.631 510.861 201.485C504.91 196.531 497.312 208.428 489.769 209.424C477.63 210.371 478.204 198.756 468.076 204.671L467.797 204.824C463.003 207.441 457.99 210.178 452.672 213.16C438.495 219.852 429.224 217.532 424.409 212.57C413.193 210.643 409.504 197.298 412.484 184.636C414.477 176.911 418.775 169.495 425.213 164.722C436.957 156.006 450.279 150.232 454.138 133.987C456.831 125.894 440.227 115.551 444.051 101.82C446.314 92.1431 454.793 86.5808 455.434 78.8527C456.095 70.8871 457.732 64.7315 459.091 61.5835Z" stroke="white" stroke-opacity="0.66" stroke-width="2"/>
<path d="M469.739 76.2885C469.935 64.32 483.253 67.9526 486.274 75.8169C495.236 98.6728 505.137 99.8452 518.561 99.3991C522.843 101.067 525.095 92.0229 532.005 90.0993C538.915 88.1757 542.511 95.3067 546.688 91.8633C553.586 86.6533 559.626 86.1043 563.982 88.4005C567.838 89.5146 570.726 93.3684 571.525 98.2596C572.236 102.938 571.019 108.522 566.843 113.506C553.21 122.504 561.704 149.815 559.446 158.757C556.005 164.074 559.489 168.683 556.766 176.036C554.044 183.388 546.033 182.299 546.031 185.816C546.934 192.183 546.2 196.054 544.19 198.22C541.96 205.64 532.04 203.318 523.141 196.718C516.935 192.701 511.252 189.618 505.776 189.092C501.202 186.181 495.456 194.567 489.654 195.805C480.704 197.078 480.293 189.795 472.856 194.002C468.909 196.046 464.899 198.003 460.762 199.997C449.212 204.335 442.277 200.559 439.503 195.128C432.17 193.239 429.936 183.766 432.229 174.807C433.866 169.13 437.129 163.72 441.904 160.178C452.478 152.323 462.722 147.372 465.517 132.665C467.366 126.272 456.103 118.231 458.424 107.938C459.707 100.341 465.127 95.4806 465.638 89.3328C466.151 83.1499 468.007 78.5062 469.739 76.2885Z" stroke="white" stroke-opacity="0.66" stroke-width="2"/>
<path d="M480.544 90.3327C481.883 84.1649 489.86 86.4323 491.838 91.5881C500.17 112.78 509.373 111.986 520.849 109.093C523.632 109.565 525.674 104.28 530.059 102.648C534.444 101.016 537.192 104.003 539.995 102.299C544.868 99.7276 548.98 100.371 551.715 102.873C553.901 104.063 555.502 107.003 555.569 110.458C555.591 113.806 554.162 117.602 550.376 120.709C536.246 127.859 547.489 156.721 546.684 165.266C545.081 169.365 545.887 172.472 543.241 176.275C540.596 180.079 534.956 178.989 533.648 179.491C532.611 181.243 531.204 181.787 529.293 181.723C527.494 184.733 521.262 182.693 515.208 179.029C510.498 176.655 505.716 175.261 500.968 176.349C497.759 175.47 493.85 180.372 489.772 181.853C483.984 183.454 482.593 180.476 477.825 182.987C474.8 184.418 471.873 185.554 469.011 186.509C460.06 188.51 455.442 183.274 454.694 177.365C451.216 175.51 450.429 169.878 452.041 164.591C453.326 160.946 455.562 157.523 458.688 155.201C468.11 148.19 475.305 144.05 477.043 130.845C478.055 126.134 472.094 120.373 472.921 113.486C473.23 107.947 475.614 103.776 475.995 99.1914C476.362 94.7732 478.439 91.6275 480.544 90.3327Z" stroke="white" stroke-opacity="0.66" stroke-width="2"/>
</svg>
