<svg width="483" height="340" viewBox="0 0 483 340" fill="none" xmlns="http://www.w3.org/2000/svg">
<rect width="483" height="340" fill="#F0F1F6"/>
<path d="M-110.228 -81.8897C-122.603 -114.088 -183.828 -129.989 -173.725 -65.8783C-172.068 -55.3664 -171.901 -37.2657 -173.725 -15.2335C-175.395 4.94923 -208.091 15.9927 -218.128 42.071C-233.868 82.9695 -175.016 111.476 -184.381 132.976C-196.648 161.135 -234.207 173.352 -254.983 188.758C-274.54 203.261 -286.998 226.532 -291.781 250.456C-300.173 292.429 -284.944 336.415 -242.994 338.604C-221.994 339.699 -194.297 330.32 -159.516 304.972C-143.965 293.638 -130.252 284.298 -118.065 276.745C-86.6976 257.307 -95.1308 303.287 -57.8321 304.972C-36.5794 305.932 -14.3822 266.237 2.4212 287.41C14.3694 302.466 28.0804 320.733 47.6612 339.514C82.0482 372.496 125.042 377.352 131.123 330.28C133.993 308.059 128.638 274.267 110.27 226.4C98.515 195.767 127.754 196.847 131.123 157.593C134.491 118.338 106.943 100.235 126.885 83.9888L127.285 83.6634C142.485 71.2814 158.697 58.0755 167.55 32.7107C175.176 10.8615 174.448 -10.7787 167.55 -27.407C160.168 -45.2029 145.72 -57.2584 126.885 -57.6861C107.987 -58.1151 84.6734 -46.8377 59.6501 -17.9067C43.1517 1.16807 31.9788 -43.216 2.4212 -38.6788C-27.1364 -34.1417 -31.2446 8.68327 -48.9514 -3.73769C-79.7096 -25.3138 -95.7341 -44.1794 -110.228 -81.8897Z" stroke="white" stroke-opacity="0.66" stroke-width="2"/>
<path d="M-163.488 -51.8517C-172.454 -110.214 -116.505 -95.6658 -105.159 -66.1478C-91.2687 -30.0606 -75.9119 -13.1475 -47.0555 5.99706C-30.8266 17.2321 -26.9213 -21.8701 0.142914 -26.1201C27.2071 -30.3701 37.5469 9.90639 52.6891 -7.44518C75.718 -33.7613 97.1309 -43.8546 114.428 -43.2178C131.613 -42.7135 144.787 -31.5607 151.444 -15.1858C157.659 0.126724 158.172 19.9984 150.923 39.9893C141.462 63.7515 127.8 78.5421 113.924 90.6353C95.7995 105.679 120.695 122.296 117.395 158.034C114.096 193.771 87.1927 192.69 97.6502 220.331C114.092 263.622 118.775 294.114 115.997 314.122C110.339 356.822 70.9875 352.244 39.4056 322.169C21.2957 305.016 8.46582 288.422 -2.77267 274.97C-18.2304 255.811 -38.6169 292.055 -58.1695 291.339C-92.3474 289.982 -84.8905 248.268 -113.623 266.028C-124.904 272.974 -137.55 281.501 -151.844 291.805C-184.072 314.837 -209.483 322.761 -228.474 321.183C-266.611 319.026 -280.407 278.843 -272.687 240.509C-268.249 218.594 -256.804 197.292 -238.873 183.996C-219.215 169.418 -184.662 157.999 -173.438 131.314C-164.9 111.478 -218.511 85.2247 -204.249 47.6975C-195.177 23.6539 -165.486 13.2895 -163.944 -5.34836C-162.264 -25.6354 -162.206 -42.2538 -163.488 -51.8517Z" stroke="white" stroke-opacity="0.66" stroke-width="2"/>
<path d="M-152.792 -37.2343C-160.609 -89.658 -110.017 -76.5089 -99.7174 -49.7689C-86.4499 -15.4268 -71.7829 -0.521057 -44.8703 16.1302C-30.1431 26.1425 -26.4465 -9.10841 -1.91515 -13.0571C22.6162 -17.0058 32.1076 19.0314 45.8716 3.45988C66.8723 -20.155 86.3528 -29.0316 102.024 -28.1895C117.533 -27.6105 129.416 -17.3973 135.337 -2.49753C140.861 11.4486 141.158 29.4862 134.296 47.5531C124.319 69.4117 113.432 85.7244 101.016 97.3929C84.7361 111.184 106.943 126.26 103.717 158.364C100.491 190.468 75.9631 189.388 85.1078 213.948C99.5992 252.521 103.602 279.613 100.922 297.343C95.6958 335.531 60.0428 331.246 31.3123 304.179C14.6995 288.708 2.76956 273.843 -7.74297 262.039C-21.8324 244.956 -40.3784 277.631 -58.2023 277.16C-89.2095 276.134 -82.7398 238.824 -108.796 254.848C-119.155 261.164 -130.714 268.849 -143.732 278.089C-173.359 298.73 -196.447 305.174 -213.402 303.12C-247.669 301.002 -260.013 264.755 -252.975 230.184C-248.89 210.352 -238.473 191.087 -222.196 179.043C-203.683 165.342 -172.185 154.759 -162.021 129.639C-154.324 111.531 -202.614 87.6179 -189.852 53.5855C-181.758 31.6562 -155.116 22.0054 -153.703 4.97416C-152.171 -13.5006 -151.888 -28.582 -152.792 -37.2343Z" stroke="white" stroke-opacity="0.66" stroke-width="2"/>
<path d="M-142.558 -23.2069C-149.237 -69.8829 -103.924 -58.0855 -94.6551 -34.0264C-81.99 -1.30802 -67.9899 11.6453 -42.9791 25.8651C-29.7308 34.6915 -26.237 3.16349 -4.20079 -0.498047C17.8355 -4.15958 26.4933 27.7701 38.9004 13.9218C57.9054 -7.07804 75.4835 -14.7707 89.5522 -13.7209C103.411 -13.0654 114.019 -3.75479 119.214 9.72376C124.055 22.354 124.136 38.623 117.652 54.8315C107.141 74.865 99.0154 92.7531 88.0388 104.038C73.5788 116.626 93.1303 130.215 89.9732 158.803C86.816 187.39 64.6257 186.308 72.4715 207.878C85.0345 241.873 88.3644 265.665 85.7776 281.183C80.9741 314.999 48.965 310.992 23.0414 286.832C7.90013 272.989 -3.14847 259.798 -12.9514 249.597C-25.6944 234.528 -42.4286 263.753 -58.5513 263.525C-86.4357 262.827 -80.9433 229.784 -104.363 244.129C-113.815 249.838 -124.307 256.71 -136.068 264.92C-163.139 283.245 -183.941 288.234 -198.885 285.697C-229.335 283.611 -240.246 251.167 -233.879 220.235C-230.14 202.413 -220.736 185.116 -206.087 174.28C-188.691 161.407 -160.201 151.623 -151.081 127.977C-144.212 111.532 -187.256 89.873 -175.974 59.2121C-168.846 39.3176 -145.212 30.346 -143.926 14.8598C-142.538 -1.8696 -142.03 -15.4687 -142.558 -23.2069Z" stroke="white" stroke-opacity="0.66" stroke-width="2"/>
<path d="M-131.867 -9.18074C-137.396 -50.1071 -97.4429 -39.6618 -89.2205 -18.2839C-77.1801 12.8134 -63.8715 23.8132 -40.8067 35.5998C-29.0608 43.2398 -25.7761 15.4356 -6.27397 12.0611C13.2281 8.68664 21.037 36.5073 32.0651 24.3827C49.0408 5.99877 64.6854 -0.509232 77.127 0.748871C89.3103 1.48119 98.6257 9.88908 103.084 21.9463C107.234 33.2607 107.099 47.7608 101.003 62.1105C89.9783 80.3193 84.6275 99.7885 75.1106 110.69C62.4958 122.076 79.3575 134.179 76.2747 159.248C73.1918 184.318 53.3781 183.234 59.9111 201.812C70.5231 231.228 73.1738 251.717 70.6846 265.022C66.3128 294.464 38.0044 290.735 14.9338 269.484C1.29082 257.268 -8.85693 245.752 -17.933 237.156C-29.3069 224.102 -44.1996 249.875 -58.5926 249.892C-83.3046 249.521 -78.7995 220.747 -99.5413 233.412C-108.07 238.515 -117.476 244.572 -127.959 251.753C-152.427 267.761 -170.905 271.293 -183.812 268.273C-210.391 266.218 -219.849 237.578 -214.165 210.285C-210.779 194.475 -202.403 179.146 -189.409 169.517C-173.161 157.471 -147.728 148.486 -139.668 126.313C-133.639 111.531 -171.361 92.1262 -161.579 64.8372C-155.43 46.9777 -134.845 38.6848 -133.69 24.7437C-132.448 9.75973 -131.716 -2.35682 -131.867 -9.18074Z" stroke="white" stroke-opacity="0.66" stroke-width="2"/>
<path d="M-121.18 5.50621C-125.56 -29.5792 -90.9678 -20.5093 -83.7926 -1.8606C-72.3787 27.5452 -59.7639 36.5671 -38.6475 45.8946C-28.4045 52.3311 -25.3292 28.3129 -8.36197 25.2331C8.60532 22.1532 15.5648 45.8028 25.2134 35.429C40.1589 19.702 53.8693 14.3931 64.6834 15.8565C75.191 16.6639 83.2132 24.1502 86.9362 34.7591C90.395 44.7321 90.0436 57.4309 84.3372 69.8897C72.8017 86.2329 70.2228 107.238 62.1655 117.732C51.396 127.89 65.5681 138.479 62.5602 159.974C59.5523 181.47 42.1162 180.387 47.3369 195.931C55.9986 220.703 57.9706 237.845 55.5795 248.906C51.6398 273.909 27.033 270.467 6.81631 252.171C-5.32748 241.61 -14.5733 231.794 -22.9215 224.822C-32.9257 213.812 -45.9763 236.076 -58.6389 236.336C-80.1776 236.294 -76.6592 211.853 -94.7224 222.811C-102.328 227.296 -110.646 232.526 -119.851 238.66C-141.715 252.315 -157.868 254.383 -168.738 250.886C-191.446 248.868 -199.451 224.097 -194.45 200.503C-191.416 186.739 -184.071 173.413 -172.731 165.013C-157.632 153.822 -135.259 145.656 -128.259 125.006C-123.071 111.921 -155.469 94.813 -147.188 70.957C-142.017 55.1725 -124.483 47.5772 -123.457 35.2124C-122.362 22.0075 -121.406 11.4006 -121.18 5.50621Z" stroke="white" stroke-opacity="0.66" stroke-width="2"/>
<path d="M-110.956 19.533C-114.196 -9.79989 -84.8926 -2.08251 -78.7495 13.8839C-67.9384 41.6715 -55.9908 48.7383 -36.7789 55.6304C-28.0174 60.8797 -25.1452 40.5871 -10.6774 37.7941C3.79036 35.0012 9.91487 54.5394 18.2041 45.8903C31.1506 32.7805 42.9552 28.6572 52.1644 30.3295C61.0181 31.214 67.7638 37.7976 70.7589 46.9848C73.5336 55.6416 72.9656 66.5709 67.6366 77.1702C55.566 91.6887 55.7539 114.281 49.1395 124.395C40.1929 133.349 51.705 142.451 48.7657 160.427C45.8264 178.404 30.7317 177.318 34.6508 189.868C41.3802 210.058 42.6774 223.895 40.3795 232.742C36.8636 253.368 15.9073 250.203 -1.4976 234.818C-12.1675 225.885 -20.5308 217.745 -28.1684 212.378C-36.8238 203.385 -48.0594 222.196 -59.018 222.7C-77.4283 222.987 -74.8893 202.816 -90.3114 212.095C-97.009 215.972 -104.257 220.388 -112.203 225.492C-131.508 236.828 -145.371 237.438 -154.226 233.456C-173.11 231.469 -179.679 210.504 -175.35 190.551C-172.663 178.799 -166.332 167.441 -156.624 160.25C-142.643 149.885 -123.282 142.517 -117.327 123.339C-112.97 111.917 -140.112 97.064 -133.314 76.5811C-129.11 62.832 -114.589 55.9151 -113.692 45.0956C-112.741 33.6366 -111.559 24.5127 -110.956 19.533Z" stroke="white" stroke-opacity="0.66" stroke-width="2"/>
<path d="M-100.283 33.5588C-102.374 9.98293 -78.4363 16.347 -73.3416 29.6299C-63.1625 55.8049 -51.9144 60.9142 -34.6584 65.367C-27.4017 69.4279 -24.7403 52.8632 -12.8102 50.3569C-0.880234 47.8507 4.39304 63.2737 11.301 56.3507C22.214 45.8603 32.0818 42.9243 39.6616 44.8066C46.838 45.7686 52.2895 51.4495 54.5488 59.2147C56.6322 66.5548 55.8493 75.714 50.9121 84.4528C38.3396 97.147 41.2924 121.339 36.1382 131.074C29.0381 138.826 37.86 146.44 34.9973 160.894C32.1347 175.348 19.4212 174.26 22.0288 183.812C26.8084 199.415 27.4277 209.945 25.2291 216.574C22.1465 232.82 4.89595 229.932 -9.65097 217.459C-18.8186 210.156 -26.2768 203.692 -33.1835 199.933C-40.4672 192.958 -49.858 208.314 -59.0835 209.064C-74.3167 209.68 -72.7636 193.784 -85.5038 201.382C-91.2757 204.652 -97.4352 208.253 -104.101 212.326C-120.795 221.342 -132.33 220.49 -139.148 216.02C-154.158 214.063 -159.274 196.906 -155.629 180.596C-153.296 170.857 -147.996 161.47 -139.944 155.487C-127.119 145.947 -110.823 139.377 -105.929 121.668C-102.413 111.91 -124.228 99.3111 -118.931 82.2027C-115.705 70.4893 -104.236 64.2502 -103.469 54.9762C-102.665 45.2634 -101.26 37.6231 -100.283 33.5588Z" stroke="white" stroke-opacity="0.66" stroke-width="2"/>
<path d="M-89.9087 47.5835C-90.8606 29.7722 -72.1602 34.7816 -68.0863 45.3787C-58.4796 69.9498 -47.8654 73.0973 -32.4669 75.1045C-26.6754 77.975 -24.2094 65.1425 -14.7524 62.9226C-5.29544 60.7027 -0.84407 72.0044 4.72032 66.8098C13.6599 58.9424 21.6447 57.1962 27.6363 59.2902C33.1739 60.3307 37.3603 65.1087 38.8955 71.4509C40.2982 77.4738 39.295 84.8616 34.721 91.738C21.5695 102.608 27.3128 128.419 23.5918 137.779C18.3006 144.328 24.4778 150.453 21.6748 161.381C18.8718 172.308 8.46977 171.217 9.77789 177.765C12.631 188.775 12.5742 195.991 10.462 200.397C7.79535 212.256 -5.84288 209.645 -17.6114 200.088C-25.3277 194.415 -31.9233 189.631 -38.1385 187.485C-44.0904 182.531 -51.6879 194.428 -59.2309 195.424C-71.3698 196.371 -70.796 184.756 -80.9236 190.671L-81.2029 190.824C-85.9967 193.441 -91.0098 196.178 -96.3282 199.16C-110.505 205.852 -119.776 203.532 -124.591 198.57C-135.807 196.643 -139.496 183.298 -136.516 170.636C-134.523 162.911 -130.225 155.495 -123.787 150.722C-112.043 142.006 -98.7211 136.232 -94.862 119.987C-92.1688 111.894 -108.773 101.551 -104.949 87.8199C-102.686 78.1431 -94.2073 72.5808 -93.5657 64.8527C-92.9047 56.8871 -91.2684 50.7315 -89.9087 47.5835Z" stroke="white" stroke-opacity="0.66" stroke-width="2"/>
<path d="M-79.2605 62.2885C-79.0648 50.32 -65.7473 53.9526 -62.7256 61.8169C-53.7636 84.6728 -43.8628 85.8452 -30.4387 85.3991C-26.1574 87.0667 -23.9053 78.0229 -16.9949 76.0993C-10.0845 74.1757 -6.48926 81.3067 -2.31156 77.8633C4.58556 72.6533 10.6255 72.1043 14.9823 74.4005C18.8378 75.5146 21.7264 79.3684 22.5251 84.2596C23.2357 88.9384 22.0194 94.5221 17.843 99.5056C4.20953 108.504 12.7043 135.815 10.4462 144.757C7.00545 150.074 10.4887 154.683 7.76617 162.036C5.04365 169.388 -2.96653 168.299 -2.96938 171.816C-2.06647 178.183 -2.79982 182.054 -4.80985 184.22C-7.04026 191.64 -16.96 189.318 -25.8591 182.718C-32.0648 178.701 -37.7477 175.618 -43.2243 175.092C-47.7985 172.181 -53.5437 180.567 -59.3461 181.805C-68.2963 183.078 -68.7074 175.795 -76.1436 180.002C-80.0909 182.046 -84.1013 184.003 -88.2375 185.997C-99.7882 190.335 -106.723 186.559 -109.497 181.128C-116.83 179.239 -119.064 169.766 -116.771 160.807C-115.134 155.13 -111.871 149.72 -107.096 146.178C-96.5222 138.323 -86.2777 133.372 -83.4834 118.665C-81.634 112.272 -92.897 104.231 -90.5763 93.9382C-89.2932 86.3411 -83.8729 81.4806 -83.3622 75.3328C-82.8488 69.1499 -80.9928 64.5062 -79.2605 62.2885Z" stroke="white" stroke-opacity="0.66" stroke-width="2"/>
<path d="M-68.4555 76.3327C-67.1173 70.1649 -59.1401 72.4323 -57.162 77.5881C-48.8302 98.7805 -39.6272 97.9862 -28.1512 95.0932C-25.3675 95.565 -23.3255 90.2801 -18.9408 88.6479C-14.5561 87.0158 -11.8082 90.0032 -9.00535 88.2987C-4.13223 85.7276 -0.0201263 86.3711 2.71515 88.8734C4.90141 90.0631 6.50208 93.0034 6.56877 96.4579C6.59149 99.8062 5.16167 103.602 1.37578 106.709C-12.7545 113.859 -1.51086 142.721 -2.31603 151.266C-3.9194 155.365 -3.11287 158.472 -5.75865 162.275C-8.40443 166.079 -14.0443 164.989 -15.3518 165.491C-16.3886 167.243 -17.7962 167.787 -19.707 167.723C-21.506 170.733 -27.7376 168.693 -33.7921 165.029C-38.5024 162.655 -43.2839 161.261 -48.0324 162.349C-51.2411 161.47 -55.1503 166.372 -59.2276 167.853C-65.0158 169.454 -66.4074 166.476 -71.1746 168.987C-74.2003 170.418 -77.1267 171.554 -79.9887 172.509C-88.9404 174.51 -93.5582 169.274 -94.3058 163.365C-97.784 161.51 -98.5713 155.878 -96.959 150.591C-95.6744 146.946 -93.4379 143.523 -90.3118 141.201C-80.8895 134.19 -73.6948 130.05 -71.9566 116.845C-70.9447 112.134 -76.9064 106.373 -76.079 99.4861C-75.7695 93.9469 -73.3859 89.7762 -73.0048 85.1914C-72.6377 80.7732 -70.5606 77.6275 -68.4555 76.3327Z" stroke="white" stroke-opacity="0.66" stroke-width="2"/>
</svg>
