<svg width="229" height="345" viewBox="0 0 229 345" fill="none" xmlns="http://www.w3.org/2000/svg">
<path d="M184.772 -67.8897C172.397 -100.088 111.172 -115.989 121.275 -51.8783C122.932 -41.3664 123.099 -23.2657 121.275 -1.23351C119.605 18.9492 86.9088 29.9927 76.8721 56.071C61.1316 96.9695 119.984 125.476 110.619 146.976C98.3521 175.135 60.7926 187.352 40.0174 202.758C20.4598 217.261 8.00215 240.532 3.21889 264.456C-5.17275 306.429 10.056 350.415 52.0063 352.604C73.0064 353.699 100.703 344.32 135.484 318.972C151.035 307.638 164.748 298.298 176.935 290.745C208.302 271.307 199.869 317.287 237.168 318.972C258.421 319.932 280.618 280.237 297.421 301.41C309.369 316.466 323.08 334.733 342.661 353.514C377.048 386.496 420.042 391.352 426.123 344.28C428.993 322.059 423.638 288.267 405.27 240.4C393.515 209.767 422.754 210.847 426.123 171.593C429.491 132.338 401.943 114.235 421.885 97.9888L422.285 97.6634C437.485 85.2814 453.697 72.0755 462.55 46.7107C470.176 24.8615 469.448 3.22131 462.55 -13.407C455.168 -31.2029 440.72 -43.2584 421.885 -43.6861C402.987 -44.1151 379.673 -32.8377 354.65 -3.90667C338.152 15.1681 326.979 -29.216 297.421 -24.6788C267.864 -20.1417 263.755 22.6833 246.049 10.2623C215.29 -11.3138 199.266 -30.1794 184.772 -67.8897Z" stroke="white" stroke-opacity="0.66" stroke-width="2"/>
<path d="M244.475 107.747C242.591 102.804 233.814 104.101 233.37 109.459C232.864 115.558 235.947 123.506 235.591 129.62C234.903 141.425 230.732 144.786 222.429 151.008C219.452 153.234 217.556 156.806 216.828 160.479C215.551 166.923 217.869 173.675 224.253 174.011C227.449 174.179 231.664 172.74 236.957 168.848C239.324 167.108 241.411 165.674 243.265 164.515C251.339 159.064 258.854 163.335 261.602 166.152C263.42 168.464 265.507 171.268 268.487 174.151C273.72 179.214 281.645 178.551 281.188 172.733C280.543 164.515 266.512 133.838 281.188 128.489C288.006 126.004 287.782 120.375 286.732 117.823C285.609 115.091 283.41 113.24 280.543 113.174C277.667 113.108 272.903 117.823 270.311 119.281C260.743 124.665 252.205 127.448 244.475 107.747Z" stroke="white" stroke-opacity="0.66" stroke-width="2"/>
<path d="M131.512 -37.8517C122.546 -96.2144 178.495 -81.6658 189.841 -52.1478C203.731 -16.0606 219.088 0.852486 247.945 19.9971C264.173 31.2321 268.079 -7.87013 295.143 -12.1201C322.207 -16.3701 332.547 23.9064 347.689 6.55482C370.718 -19.7613 392.131 -29.8546 409.428 -29.2178C426.613 -28.7135 439.787 -17.5607 446.444 -1.1858C452.659 14.1267 453.172 33.9984 445.923 53.9893C436.462 77.7515 422.8 92.5421 408.924 104.635C390.8 119.679 415.695 136.296 412.395 172.034C409.096 207.771 382.193 206.69 392.65 234.331C409.092 277.622 413.775 308.114 410.997 328.122C405.339 370.822 365.987 366.244 334.406 336.169C316.296 319.016 303.466 302.422 292.227 288.97C276.77 269.811 256.383 306.055 236.831 305.339C202.653 303.982 210.11 262.268 181.377 280.028C170.096 286.974 157.45 295.501 143.156 305.805C110.928 328.837 85.5169 336.761 66.5256 335.183C28.3892 333.026 14.5925 292.843 22.3131 254.509C26.7505 232.594 38.1962 211.292 56.1266 197.996C75.7847 183.418 110.338 171.999 121.562 145.314C130.1 125.478 76.4893 99.2247 90.7509 61.6975C99.8227 37.6539 129.514 27.2895 131.056 8.65164C132.736 -11.6354 132.794 -28.2538 131.512 -37.8517Z" stroke="white" stroke-opacity="0.66" stroke-width="2"/>
<path d="M142.208 -23.2343C134.391 -75.658 184.983 -62.5089 195.283 -35.7689C208.55 -1.42678 223.217 13.4789 250.13 30.1302C264.857 40.1425 268.554 4.89159 293.085 0.942886C317.616 -3.00581 327.108 33.0314 340.872 17.4599C361.872 -6.15498 381.353 -15.0316 397.024 -14.1895C412.533 -13.6105 424.416 -3.39726 430.337 11.5025C435.861 25.4486 436.158 43.4862 429.296 61.5531C419.319 83.4117 408.432 99.7244 396.016 111.393C379.736 125.184 401.943 140.26 398.717 172.364C395.491 204.468 370.963 203.388 380.108 227.948C394.599 266.521 398.602 293.613 395.922 311.343C390.696 349.531 355.043 345.246 326.312 318.179C309.699 302.708 297.77 287.843 287.257 276.039C273.168 258.956 254.622 291.631 236.798 291.16C205.79 290.134 212.26 252.824 186.204 268.848C175.845 275.164 164.286 282.849 151.268 292.089C121.641 312.73 98.5529 319.174 81.5982 317.12C47.3314 315.002 34.9872 278.755 42.0254 244.184C46.1105 224.352 56.5275 205.087 72.8044 193.043C91.3169 179.342 122.815 168.759 132.979 143.639C140.676 125.531 92.3862 101.618 105.148 67.5855C113.242 45.6562 139.884 36.0054 141.297 18.9742C142.829 0.499374 143.112 -14.582 142.208 -23.2343Z" stroke="white" stroke-opacity="0.66" stroke-width="2"/>
<path d="M152.442 -9.20691C145.763 -55.8829 191.076 -44.0855 200.345 -20.0264C213.01 12.692 227.01 25.6453 252.021 39.8651C265.269 48.6915 268.763 17.1635 290.799 13.502C312.835 9.84042 321.493 41.7701 333.9 27.9218C352.905 6.92196 370.484 -0.770714 384.552 0.279133C398.411 0.934647 409.019 10.2452 414.214 23.7238C419.055 36.354 419.136 52.623 412.652 68.8315C402.141 88.865 394.015 106.753 383.039 118.038C368.579 130.626 388.13 144.215 384.973 172.803C381.816 201.39 359.626 200.308 367.471 221.878C380.034 255.873 383.364 279.665 380.778 295.183C375.974 328.999 343.965 324.992 318.041 300.832C302.9 286.989 291.852 273.798 282.049 263.597C269.306 248.528 252.571 277.753 236.449 277.525C208.564 276.827 214.057 243.784 190.637 258.129C181.185 263.838 170.693 270.71 158.932 278.92C131.861 297.245 111.059 302.234 96.1146 299.697C65.6648 297.611 54.7539 265.167 61.1207 234.235C64.8598 216.413 74.2642 199.116 88.9128 188.28C106.309 175.407 134.799 165.623 143.919 141.977C150.788 125.532 107.744 103.873 119.026 73.2121C126.154 53.3176 149.788 44.346 151.074 28.8598C152.462 12.1304 152.97 -1.46867 152.442 -9.20691Z" stroke="white" stroke-opacity="0.66" stroke-width="2"/>
<path d="M163.133 4.81926C157.604 -36.1071 197.557 -25.6618 205.779 -4.28394C217.82 26.8134 231.128 37.8132 254.193 49.5998C265.939 57.2398 269.224 29.4356 288.726 26.0611C308.228 22.6866 316.037 50.5073 327.065 38.3827C344.041 19.9988 359.685 13.4908 372.127 14.7489C384.31 15.4812 393.626 23.8891 398.084 35.9463C402.234 47.2607 402.099 61.7608 396.003 76.1105C384.978 94.3193 379.628 113.789 370.111 124.69C357.496 136.076 374.358 148.179 371.275 173.248C368.192 198.318 348.378 197.234 354.911 215.812C365.523 245.228 368.174 265.717 365.685 279.022C361.313 308.464 333.004 304.735 309.934 283.484C296.291 271.268 286.143 259.752 277.067 251.156C265.693 238.102 250.8 263.875 236.407 263.892C211.695 263.521 216.201 234.747 195.459 247.412C186.93 252.515 177.524 258.572 167.041 265.753C142.573 281.761 124.095 285.293 111.188 282.273C84.609 280.218 75.1509 251.578 80.835 224.285C84.2214 208.475 92.5966 193.146 105.591 183.517C121.839 171.471 147.272 162.486 155.332 140.313C161.361 125.531 123.639 106.126 133.421 78.8372C139.57 60.9777 160.155 52.6848 161.31 38.7437C162.552 23.7597 163.284 11.6432 163.133 4.81926Z" stroke="white" stroke-opacity="0.66" stroke-width="2"/>
<path d="M173.82 19.5062C169.44 -15.5792 204.032 -6.50927 211.207 12.1394C222.621 41.5452 235.236 50.5671 256.352 59.8946C266.596 66.3311 269.671 42.3129 286.638 39.2331C303.605 36.1532 310.565 59.8028 320.213 49.429C335.159 33.702 348.869 28.3931 359.683 29.8565C370.191 30.6639 378.213 38.1502 381.936 48.7591C385.395 58.7321 385.044 71.4309 379.337 83.8897C367.802 100.233 365.223 121.238 357.165 131.732C346.396 141.89 360.568 152.479 357.56 173.974C354.552 195.47 337.116 194.387 342.337 209.931C350.999 234.703 352.971 251.845 350.579 262.906C346.64 287.909 322.033 284.467 301.816 266.171C289.673 255.61 280.427 245.794 272.079 238.822C262.074 227.812 249.024 250.076 236.361 250.336C214.822 250.294 218.341 225.853 200.278 236.811C192.672 241.296 184.354 246.526 175.149 252.66C153.285 266.315 137.132 268.383 126.262 264.886C103.554 262.868 95.549 238.097 100.55 214.503C103.584 200.739 110.929 187.413 122.269 179.013C137.368 167.822 159.741 159.656 166.741 139.006C171.929 125.921 139.531 108.813 147.812 84.957C152.983 69.1725 170.517 61.5772 171.543 49.2124C172.638 36.0075 173.594 25.4006 173.82 19.5062Z" stroke="white" stroke-opacity="0.66" stroke-width="2"/>
<path d="M184.044 33.533C180.804 4.20011 210.107 11.9175 216.251 27.8839C227.062 55.6715 239.009 62.7383 258.221 69.6304C266.983 74.8797 269.855 54.5871 284.323 51.7941C298.79 49.0012 304.915 68.5394 313.204 59.8903C326.151 46.7805 337.955 42.6572 347.164 44.3295C356.018 45.214 362.764 51.7976 365.759 60.9848C368.534 69.6416 367.966 80.5709 362.637 91.1702C350.566 105.689 350.754 128.281 344.139 138.395C335.193 147.349 346.705 156.451 343.766 174.427C340.826 192.404 325.732 191.318 329.651 203.868C336.38 224.058 337.677 237.895 335.379 246.742C331.864 267.368 310.907 264.203 293.502 248.818C282.832 239.885 274.469 231.745 266.832 226.378C258.176 217.385 246.941 236.196 235.982 236.7C217.572 236.987 220.111 216.816 204.689 226.095C197.991 229.972 190.743 234.388 182.797 239.492C163.492 250.828 149.629 251.438 140.774 247.456C121.89 245.469 115.321 224.504 119.65 204.551C122.337 192.799 128.668 181.441 138.376 174.25C152.357 163.885 171.718 156.517 177.673 137.339C182.03 125.917 154.888 111.064 161.686 90.5811C165.89 76.832 180.411 69.9151 181.308 59.0956C182.259 47.6366 183.441 38.5127 184.044 33.533Z" stroke="white" stroke-opacity="0.66" stroke-width="2"/>
<path d="M194.717 47.5588C192.626 23.9829 216.564 30.347 221.658 43.6299C231.837 69.8049 243.086 74.9142 260.342 79.367C267.598 83.4279 270.26 66.8632 282.19 64.3569C294.12 61.8507 299.393 77.2737 306.301 70.3507C317.214 59.8603 327.082 56.9243 334.662 58.8066C341.838 59.7686 347.289 65.4495 349.549 73.2147C351.632 80.5548 350.849 89.714 345.912 98.4528C333.34 111.147 336.292 135.339 331.138 145.074C324.038 152.826 332.86 160.44 329.997 174.894C327.135 189.348 314.421 188.26 317.029 197.812C321.808 213.415 322.428 223.945 320.229 230.574C317.147 246.82 299.896 243.932 285.349 231.459C276.181 224.156 268.723 217.692 261.816 213.933C254.533 206.958 245.142 222.314 235.917 223.064C220.683 223.68 222.236 207.784 209.496 215.382C203.724 218.652 197.565 222.253 190.899 226.326C174.205 235.342 162.67 234.49 155.852 230.02C140.842 228.063 135.726 210.906 139.371 194.596C141.704 184.857 147.004 175.47 155.056 169.487C167.881 159.947 184.177 153.377 189.071 135.668C192.587 125.91 170.772 113.311 176.069 96.2027C179.295 84.4893 190.764 78.2502 191.531 68.9762C192.335 59.2634 193.74 51.6231 194.717 47.5588Z" stroke="white" stroke-opacity="0.66" stroke-width="2"/>
<path d="M205.091 61.5835C204.139 43.7722 222.84 48.7816 226.914 59.3787C236.52 83.9498 247.135 87.0973 262.533 89.1045C268.325 91.975 270.791 79.1425 280.248 76.9226C289.705 74.7027 294.156 86.0044 299.72 80.8098C308.66 72.9424 316.645 71.1962 322.636 73.2902C328.174 74.3307 332.36 79.1087 333.896 85.4509C335.298 91.4738 334.295 98.8616 329.721 105.738C316.57 116.608 322.313 142.419 318.592 151.779C313.301 158.328 319.478 164.453 316.675 175.381C313.872 186.308 303.47 185.217 304.778 191.765C307.631 202.775 307.574 209.991 305.462 214.397C302.795 226.256 289.157 223.645 277.389 214.088C269.672 208.415 263.077 203.631 256.861 201.485C250.91 196.531 243.312 208.428 235.769 209.424C223.63 210.371 224.204 198.756 214.076 204.671L213.797 204.824C209.003 207.441 203.99 210.178 198.672 213.16C184.495 219.852 175.224 217.532 170.409 212.57C159.193 210.643 155.504 197.298 158.484 184.636C160.477 176.911 164.775 169.495 171.213 164.722C182.957 156.006 196.279 150.232 200.138 133.987C202.831 125.894 186.227 115.551 190.051 101.82C192.314 92.1431 200.793 86.5808 201.434 78.8527C202.095 70.8871 203.732 64.7315 205.091 61.5835Z" stroke="white" stroke-opacity="0.66" stroke-width="2"/>
<path d="M215.739 76.2885C215.935 64.32 229.253 67.9526 232.274 75.8169C241.236 98.6728 251.137 99.8452 264.561 99.3991C268.843 101.067 271.095 92.0229 278.005 90.0993C284.915 88.1757 288.511 95.3067 292.688 91.8633C299.586 86.6533 305.626 86.1043 309.982 88.4005C313.838 89.5146 316.726 93.3684 317.525 98.2596C318.236 102.938 317.019 108.522 312.843 113.506C299.21 122.504 307.704 149.815 305.446 158.757C302.005 164.074 305.489 168.683 302.766 176.036C300.044 183.388 292.033 182.299 292.031 185.816C292.934 192.183 292.2 196.054 290.19 198.22C287.96 205.64 278.04 203.318 269.141 196.718C262.935 192.701 257.252 189.618 251.776 189.092C247.202 186.181 241.456 194.567 235.654 195.805C226.704 197.078 226.293 189.795 218.856 194.002C214.909 196.046 210.899 198.003 206.762 199.997C195.212 204.335 188.277 200.559 185.503 195.128C178.17 193.239 175.936 183.766 178.229 174.807C179.866 169.13 183.129 163.72 187.904 160.178C198.478 152.323 208.722 147.372 211.517 132.665C213.366 126.272 202.103 118.231 204.424 107.938C205.707 100.341 211.127 95.4806 211.638 89.3328C212.151 83.1499 214.007 78.5062 215.739 76.2885Z" stroke="white" stroke-opacity="0.66" stroke-width="2"/>
<path d="M226.544 90.3327C227.883 84.1649 235.86 86.4323 237.838 91.5881C246.17 112.78 255.373 111.986 266.849 109.093C269.632 109.565 271.674 104.28 276.059 102.648C280.444 101.016 283.192 104.003 285.995 102.299C290.868 99.7276 294.98 100.371 297.715 102.873C299.901 104.063 301.502 107.003 301.569 110.458C301.591 113.806 300.162 117.602 296.376 120.709C282.246 127.859 293.489 156.721 292.684 165.266C291.081 169.365 291.887 172.472 289.241 176.275C286.596 180.079 280.956 178.989 279.648 179.491C278.611 181.243 277.204 181.787 275.293 181.723C273.494 184.733 267.262 182.693 261.208 179.029C256.498 176.655 251.716 175.261 246.968 176.349C243.759 175.47 239.85 180.372 235.772 181.853C229.984 183.454 228.593 180.476 223.825 182.987C220.8 184.418 217.873 185.554 215.011 186.509C206.06 188.51 201.442 183.274 200.694 177.365C197.216 175.51 196.429 169.878 198.041 164.591C199.326 160.946 201.562 157.523 204.688 155.201C214.11 148.19 221.305 144.05 223.043 130.845C224.055 126.134 218.094 120.373 218.921 113.486C219.23 107.947 221.614 103.776 221.995 99.1914C222.362 94.7732 224.439 91.6275 226.544 90.3327Z" stroke="white" stroke-opacity="0.66" stroke-width="2"/>
</svg>
