<svg width="34" height="34" viewBox="0 0 34 34" fill="none" xmlns="http://www.w3.org/2000/svg">
<path d="M32.2093 17C32.2093 25.8589 25.2008 33 16.6047 33C8.00849 33 1 25.8589 1 17C1 8.14113 8.00849 1 16.6047 1C25.2008 1 32.2093 8.14113 32.2093 17Z" fill="#0E6C67" stroke="#0E6C67" stroke-width="2"/>
<path d="M23.9635 7.23253C23.7005 7.24407 23.4445 7.31727 23.2136 7.40972C22.9851 7.50155 21.6695 8.06306 19.7268 8.89367C17.7841 9.72427 15.2587 10.8059 12.7553 11.8784C7.74859 14.0235 2.82861 16.1341 2.82861 16.1341L2.86447 16.1204C2.86447 16.1204 2.56752 16.2196 2.26646 16.4294C2.11593 16.5343 1.95399 16.6697 1.82138 16.8671C1.68878 17.0645 1.59185 17.3443 1.62838 17.6402C1.75669 18.6796 2.83388 18.9744 2.83388 18.9744L2.8381 18.9765L7.64536 20.6218C7.76793 21.0307 9.10343 25.4881 9.3972 26.4321C9.55944 26.954 9.7113 27.255 9.8697 27.4604C9.94897 27.5632 10.032 27.6427 10.1239 27.7009C10.1604 27.724 10.1987 27.7413 10.2367 27.7568C10.2375 27.7571 10.238 27.7564 10.2388 27.7568C10.2435 27.7588 10.2479 27.759 10.2525 27.761L10.2399 27.7578C10.2487 27.7614 10.2574 27.7674 10.2663 27.7705C10.2834 27.7765 10.2939 27.7763 10.3158 27.781C10.8664 27.9732 11.322 27.6165 11.322 27.6165L11.341 27.6017L14.2941 24.8627L19.0866 28.5995L19.1467 28.6269C19.9856 28.9993 20.7442 28.7915 21.1644 28.4497C21.5845 28.1078 21.7497 27.6671 21.7497 27.6671L21.7676 27.6207L25.2892 9.26598C25.3793 8.85534 25.3921 8.5004 25.3072 8.17965C25.2222 7.85891 25.0157 7.58009 24.7566 7.42555C24.4975 7.27101 24.2265 7.22099 23.9635 7.23253ZM23.992 8.33046C24.0988 8.32551 24.178 8.33772 24.2029 8.35261C24.2279 8.36749 24.2391 8.36554 24.263 8.45597C24.287 8.5464 24.3 8.73688 24.2345 9.035L24.2324 9.04132L20.7309 27.2895C20.7226 27.3079 20.6496 27.4767 20.483 27.6123C20.3131 27.7506 20.1241 27.8585 19.6224 27.6481L14.3817 23.5612L14.234 23.4452L14.2308 23.4484L12.6636 22.2724L21.4713 11.9101C21.6095 11.7478 21.6394 11.5195 21.5476 11.3271C21.4557 11.1347 21.2593 11.0144 21.0462 11.0199C20.9443 11.0226 20.8452 11.054 20.7604 11.1106L8.01557 19.6072L3.20092 17.9587C3.20092 17.9587 2.72282 17.6927 2.69994 17.5073C2.69867 17.497 2.69303 17.5063 2.71787 17.4694C2.74271 17.4324 2.80516 17.3699 2.88346 17.3154C3.04004 17.2063 3.21884 17.1403 3.21884 17.1403L3.23677 17.134L3.2547 17.1266C3.2547 17.1266 8.17494 15.0159 13.1814 12.8709C15.6847 11.7984 18.2096 10.7176 20.1518 9.8872C22.0936 9.05702 23.4966 8.45945 23.6154 8.4117C23.7507 8.35753 23.8852 8.3354 23.992 8.33046ZM18.1511 14.1481L11.4718 22.0066L11.4686 22.0098C11.4582 22.0223 11.4483 22.0353 11.4391 22.0488C11.4285 22.0634 11.4186 22.0785 11.4095 22.0941C11.372 22.1578 11.348 22.2285 11.3389 22.3019C11.3389 22.3033 11.3389 22.3047 11.3389 22.3061L10.4688 26.219C10.4543 26.1767 10.4442 26.1613 10.4287 26.1114V26.1104C10.1523 25.2224 8.89231 21.0186 8.71798 20.4372L18.1511 14.1481ZM12.2259 23.2944L13.4261 24.1951L11.6627 25.8298L12.2259 23.2944Z" fill="white"/>
</svg>
