<svg width="206" height="23" viewBox="0 0 206 23" fill="none" xmlns="http://www.w3.org/2000/svg">
<path d="M24.8877 2.35645C24.6143 2.38574 24.2236 2.43945 23.7158 2.51758C23.208 2.5957 22.749 2.78613 22.3389 3.08887C21.9775 3.35254 21.7188 3.80664 21.5625 4.45117C21.416 5.08594 21.3428 6.02344 21.3428 7.26367V22.1172H18.7354L5.78613 6.04785V15.8037C5.78613 17.0146 5.86426 17.9375 6.02051 18.5723C6.18652 19.1973 6.4502 19.6562 6.81152 19.9492C7.0752 20.1641 7.49512 20.3545 8.07129 20.5205C8.64746 20.6865 9.10645 20.7988 9.44824 20.8574V22H0.512695V20.8574C0.893555 20.8281 1.32812 20.7598 1.81641 20.6523C2.31445 20.5352 2.72949 20.3594 3.06152 20.125C3.44238 19.8418 3.70117 19.417 3.83789 18.8506C3.98438 18.2744 4.05762 17.3125 4.05762 15.9648V6.12109C4.05762 5.63281 3.97949 5.17383 3.82324 4.74414C3.67676 4.30469 3.44238 3.92871 3.12012 3.61621C2.77832 3.28418 2.38281 3.02539 1.93359 2.83984C1.49414 2.64453 0.991211 2.49316 0.424805 2.38574V1.21387H8.24707L19.6143 15.2764V7.41016C19.6143 6.16016 19.5312 5.23242 19.3652 4.62695C19.1992 4.01172 18.9355 3.55762 18.5742 3.26465C18.291 3.04004 17.8711 2.84961 17.3145 2.69336C16.7578 2.52734 16.3086 2.41504 15.9668 2.35645V1.21387H24.8877V2.35645Z" fill="#0E6C67"/>
<path d="M48.7646 22H37.4414V20.8574C37.9688 20.8184 38.5889 20.7256 39.3018 20.5791C40.0146 20.4229 40.3711 20.2324 40.3711 20.0078C40.3711 19.9297 40.3613 19.8418 40.3418 19.7441C40.332 19.6465 40.293 19.5146 40.2246 19.3486L38.4521 15.042H31.2744C31.1084 15.4424 30.9229 15.9111 30.7178 16.4482C30.5225 16.9854 30.3516 17.4639 30.2051 17.8838C30.0195 18.4307 29.9072 18.8262 29.8682 19.0703C29.8389 19.3145 29.8242 19.4854 29.8242 19.583C29.8242 19.8955 30.0586 20.1641 30.5273 20.3887C31.0059 20.6035 31.7969 20.7598 32.9004 20.8574V22H24.375V20.8574C24.6973 20.8379 25.0586 20.7891 25.459 20.7109C25.8691 20.623 26.1914 20.5059 26.4258 20.3594C26.8262 20.125 27.1631 19.8369 27.4365 19.4951C27.7197 19.1533 27.9541 18.748 28.1396 18.2793C29.2725 15.5352 30.4053 12.7861 31.5381 10.0322C32.6807 7.27832 33.9404 4.24121 35.3174 0.920898H38.2471C40.1611 5.62793 41.6602 9.34863 42.7441 12.083C43.8281 14.8174 44.751 17.083 45.5127 18.8799C45.6396 19.1729 45.8008 19.4414 45.9961 19.6855C46.1914 19.9199 46.4697 20.1445 46.8311 20.3594C47.1045 20.5156 47.4219 20.6328 47.7832 20.7109C48.1445 20.7891 48.4717 20.8379 48.7646 20.8574V22ZM37.8516 13.5918L34.834 6.0625L31.8604 13.5918H37.8516Z" fill="#0E6C67"/>
<path d="M68.5254 15.335L68.1152 22H48.9697V20.8574C49.3115 20.8281 49.7119 20.7842 50.1709 20.7256C50.6299 20.6572 50.9326 20.5938 51.0791 20.5352C51.4307 20.3984 51.6748 20.208 51.8115 19.9639C51.9482 19.7197 52.0166 19.4072 52.0166 19.0264V4.36328C52.0166 4.01172 51.9629 3.72363 51.8555 3.49902C51.748 3.26465 51.4893 3.05469 51.0791 2.86914C50.7764 2.73242 50.4102 2.625 49.9805 2.54688C49.5605 2.45898 49.2236 2.39551 48.9697 2.35645V1.21387H60.3809V2.35645C60.0684 2.38574 59.6973 2.42969 59.2676 2.48828C58.8477 2.53711 58.4814 2.61035 58.1689 2.70801C57.7881 2.83496 57.5342 3.03516 57.4072 3.30859C57.2803 3.57227 57.2168 3.875 57.2168 4.2168V17.8838C57.2168 18.5283 57.2607 19.0361 57.3486 19.4072C57.4365 19.7783 57.6074 20.0518 57.8613 20.2275C58.1152 20.4131 58.4668 20.5352 58.916 20.5938C59.375 20.6426 60.0049 20.667 60.8057 20.667C61.5869 20.667 62.3438 20.623 63.0762 20.5352C63.8184 20.4375 64.3506 20.2324 64.6729 19.9199C65.1709 19.4219 65.6787 18.7236 66.1963 17.8252C66.7236 16.917 67.1436 16.0869 67.4561 15.335H68.5254Z" fill="#0E6C67"/>
<path d="M88.7402 3.52832C89.7656 4.46582 90.5762 5.59863 91.1719 6.92676C91.7773 8.25488 92.0801 9.76855 92.0801 11.4678C92.0801 12.9814 91.8262 14.4219 91.3184 15.7891C90.8105 17.1562 90.0781 18.333 89.1211 19.3193C88.1152 20.3447 86.9336 21.1455 85.5762 21.7217C84.2188 22.2881 82.6025 22.5713 80.7275 22.5713C79.2139 22.5713 77.7832 22.3223 76.4355 21.8242C75.0879 21.3262 73.9014 20.6035 72.876 19.6562C71.8604 18.7285 71.0547 17.6006 70.459 16.2725C69.8633 14.9443 69.5654 13.4648 69.5654 11.834C69.5654 10.1348 69.8535 8.59668 70.4297 7.21973C71.0156 5.83301 71.8164 4.64648 72.832 3.66016C73.8379 2.69336 75.0293 1.95117 76.4062 1.43359C77.793 0.90625 79.2676 0.642578 80.8301 0.642578C82.3828 0.642578 83.8379 0.896484 85.1953 1.4043C86.5625 1.91211 87.7441 2.62012 88.7402 3.52832ZM84.9756 18.3965C85.415 17.5078 85.7324 16.502 85.9277 15.3789C86.123 14.2559 86.2207 12.9863 86.2207 11.5703C86.2207 10.3691 86.1328 9.20215 85.957 8.06934C85.791 6.92676 85.5029 5.91113 85.0928 5.02246C84.6729 4.13379 84.1162 3.4209 83.4229 2.88379C82.7295 2.34668 81.8652 2.07812 80.8301 2.07812C79.0625 2.07812 77.7197 2.91797 76.8018 4.59766C75.8838 6.26758 75.4248 8.63086 75.4248 11.6875C75.4248 12.9863 75.5225 14.2119 75.7178 15.3643C75.9229 16.5166 76.2402 17.5225 76.6699 18.3818C77.1094 19.251 77.666 19.9297 78.3398 20.418C79.0137 20.8965 79.8438 21.1357 80.8301 21.1357C81.7969 21.1357 82.627 20.8916 83.3203 20.4033C84.0137 19.915 84.5654 19.2461 84.9756 18.3965Z" fill="#0E6C67"/>
<path d="M117.29 13.5479C116.987 13.5771 116.719 13.6113 116.484 13.6504C116.25 13.6895 115.957 13.7676 115.605 13.8848C115.205 14.0117 114.941 14.2217 114.814 14.5146C114.688 14.8076 114.624 15.1152 114.624 15.4375V17.8545C114.624 18.3428 114.629 18.7383 114.639 19.041C114.648 19.334 114.663 19.7002 114.683 20.1396C113.706 20.7256 112.261 21.2773 110.347 21.7949C108.442 22.3125 106.689 22.5713 105.088 22.5713C103.584 22.5713 102.173 22.3418 100.854 21.8828C99.5361 21.4238 98.3789 20.7354 97.3828 19.8174C96.3867 18.9092 95.6006 17.7812 95.0244 16.4336C94.458 15.0859 94.1748 13.543 94.1748 11.8047C94.1748 10.1836 94.4434 8.68457 94.9805 7.30762C95.5176 5.93066 96.2939 4.74414 97.3096 3.74805C98.3057 2.76172 99.5166 2 100.942 1.46289C102.378 0.925781 103.965 0.657227 105.703 0.657227C106.885 0.657227 107.979 0.803711 108.984 1.09668C109.99 1.37988 110.82 1.6875 111.475 2.01953L112.383 1.21387H113.657L113.789 8.80176H112.5C111.758 6.52637 110.869 4.83691 109.834 3.7334C108.799 2.62988 107.49 2.07812 105.908 2.07812C104.033 2.07812 102.583 2.89844 101.558 4.53906C100.542 6.17969 100.034 8.44043 100.034 11.3213C100.034 14.3779 100.532 16.7705 101.528 18.499C102.534 20.2275 103.955 21.0918 105.791 21.0918C106.65 21.0918 107.412 20.9648 108.076 20.7109C108.75 20.4473 109.272 20.1445 109.644 19.8027V15.584C109.644 15.2324 109.58 14.9395 109.453 14.7051C109.326 14.4609 109.072 14.251 108.691 14.0752C108.398 13.9385 108.032 13.8262 107.593 13.7383C107.153 13.6504 106.787 13.5869 106.494 13.5479V12.4053H117.29V13.5479Z" fill="#0E6C67"/>
<path d="M129.814 22H118.286V20.8574C118.55 20.8379 118.936 20.8086 119.443 20.7695C119.961 20.7305 120.317 20.6719 120.513 20.5938C120.874 20.4473 121.118 20.2568 121.245 20.0225C121.382 19.7783 121.45 19.4707 121.45 19.0996V4.36328C121.45 4.03125 121.387 3.73828 121.26 3.48438C121.133 3.23047 120.884 3.02539 120.513 2.86914C120.278 2.77148 119.932 2.67383 119.473 2.57617C119.014 2.46875 118.618 2.39551 118.286 2.35645V1.21387H129.814V2.35645C129.521 2.38574 129.155 2.42969 128.716 2.48828C128.276 2.53711 127.905 2.61035 127.603 2.70801C127.222 2.83496 126.968 3.03516 126.841 3.30859C126.714 3.57227 126.65 3.875 126.65 4.2168V18.9385C126.65 19.29 126.714 19.5928 126.841 19.8467C126.978 20.0908 127.231 20.291 127.603 20.4473C127.808 20.5352 128.145 20.623 128.613 20.7109C129.092 20.7891 129.492 20.8379 129.814 20.8574V22Z" fill="#0E6C67"/>
<path d="M138.574 19.5684C138.574 20.3398 138.286 21.0088 137.71 21.5752C137.144 22.1416 136.47 22.4248 135.688 22.4248C134.897 22.4248 134.214 22.1465 133.638 21.5898C133.071 21.0234 132.788 20.3496 132.788 19.5684C132.788 18.7871 133.071 18.1133 133.638 17.5469C134.214 16.9707 134.897 16.6826 135.688 16.6826C136.47 16.6826 137.144 16.9707 137.71 17.5469C138.286 18.123 138.574 18.7969 138.574 19.5684Z" fill="#0E6C67"/>
<path d="M159.961 12.4639C160.586 12.8936 161.094 13.4355 161.484 14.0898C161.875 14.7344 162.07 15.4961 162.07 16.375C162.07 17.4297 161.846 18.3232 161.396 19.0557C160.957 19.7783 160.322 20.3496 159.492 20.7695C158.613 21.2188 157.598 21.5361 156.445 21.7217C155.303 21.9072 153.955 22 152.402 22H141.606V20.8574C141.909 20.8281 142.29 20.7842 142.749 20.7256C143.208 20.667 143.53 20.5986 143.716 20.5205C144.077 20.374 144.321 20.1836 144.448 19.9492C144.585 19.7051 144.653 19.3926 144.653 19.0117V4.36328C144.653 4.01172 144.6 3.71875 144.492 3.48438C144.385 3.25 144.126 3.04492 143.716 2.86914C143.413 2.74219 143.062 2.63965 142.661 2.56152C142.261 2.47363 141.909 2.40527 141.606 2.35645V1.21387H152.9C155.742 1.21387 157.793 1.60449 159.053 2.38574C160.312 3.16699 160.942 4.31934 160.942 5.84277C160.942 6.5459 160.801 7.16602 160.518 7.70312C160.234 8.23047 159.829 8.68945 159.302 9.08008C158.823 9.44141 158.252 9.75391 157.588 10.0176C156.924 10.2812 156.211 10.501 155.449 10.6768V10.9551C156.211 11.0332 157.002 11.2041 157.822 11.4678C158.643 11.7217 159.355 12.0537 159.961 12.4639ZM155.244 6.20898C155.244 5.05664 154.917 4.1582 154.263 3.51367C153.618 2.86914 152.646 2.54688 151.348 2.54688C151.162 2.54688 150.918 2.55664 150.615 2.57617C150.322 2.58594 150.068 2.5957 149.854 2.60547V10.3105H150.615C152.197 10.3105 153.364 9.94434 154.116 9.21191C154.868 8.46973 155.244 7.46875 155.244 6.20898ZM156.27 16.1846C156.27 14.7393 155.84 13.6309 154.98 12.8594C154.121 12.0879 152.886 11.7021 151.274 11.7021C151.089 11.7021 150.84 11.7119 150.527 11.7314C150.225 11.7412 150 11.751 149.854 11.7607V19.3633C149.941 19.7246 150.215 20.0322 150.674 20.2861C151.133 20.5303 151.689 20.6523 152.344 20.6523C153.506 20.6523 154.448 20.2617 155.171 19.4805C155.903 18.6992 156.27 17.6006 156.27 16.1846Z" fill="#0E6C67"/>
<path d="M182.769 6.5166H181.655C181.372 5.72559 180.884 4.9248 180.19 4.11426C179.497 3.30371 178.809 2.8252 178.125 2.67871C177.832 2.61035 177.422 2.57129 176.895 2.56152C176.377 2.54199 175.947 2.53223 175.605 2.53223H172.588V10.5596H174.727C175.264 10.5596 175.752 10.4961 176.191 10.3691C176.631 10.2422 177.031 9.99805 177.393 9.63672C177.617 9.41211 177.842 9.0166 178.066 8.4502C178.301 7.88379 178.452 7.39062 178.521 6.9707H179.634V15.6426H178.521C178.462 15.2324 178.311 14.7197 178.066 14.1045C177.832 13.4795 177.607 13.0498 177.393 12.8154C177.07 12.4639 176.689 12.2246 176.25 12.0977C175.811 11.9609 175.303 11.8926 174.727 11.8926H172.588V17.8838C172.588 18.5088 172.632 19.0068 172.72 19.3779C172.817 19.7393 172.993 20.0176 173.247 20.2129C173.491 20.3984 173.823 20.5205 174.243 20.5791C174.673 20.6377 175.254 20.667 175.986 20.667C176.328 20.667 176.738 20.6621 177.217 20.6523C177.695 20.6426 178.115 20.6133 178.477 20.5645C178.887 20.5156 179.268 20.4424 179.619 20.3447C179.98 20.2471 180.249 20.1055 180.425 19.9199C180.894 19.4414 181.421 18.7139 182.007 17.7373C182.593 16.751 182.979 16.0137 183.164 15.5254H184.233L183.838 22H164.341V20.8574C164.614 20.8379 164.985 20.7988 165.454 20.7402C165.923 20.6816 166.255 20.6133 166.45 20.5352C166.821 20.3789 167.07 20.1836 167.197 19.9492C167.324 19.7051 167.388 19.3975 167.388 19.0264V4.36328C167.388 4.01172 167.334 3.72363 167.227 3.49902C167.119 3.26465 166.86 3.05469 166.45 2.86914C166.196 2.75195 165.84 2.64453 165.381 2.54688C164.922 2.44922 164.575 2.38574 164.341 2.35645V1.21387H182.769V6.5166Z" fill="#0E6C67"/>
<path d="M205.547 15.335L205.137 22H185.991V20.8574C186.333 20.8281 186.733 20.7842 187.192 20.7256C187.651 20.6572 187.954 20.5938 188.101 20.5352C188.452 20.3984 188.696 20.208 188.833 19.9639C188.97 19.7197 189.038 19.4072 189.038 19.0264V4.36328C189.038 4.01172 188.984 3.72363 188.877 3.49902C188.77 3.26465 188.511 3.05469 188.101 2.86914C187.798 2.73242 187.432 2.625 187.002 2.54688C186.582 2.45898 186.245 2.39551 185.991 2.35645V1.21387H197.402V2.35645C197.09 2.38574 196.719 2.42969 196.289 2.48828C195.869 2.53711 195.503 2.61035 195.19 2.70801C194.81 2.83496 194.556 3.03516 194.429 3.30859C194.302 3.57227 194.238 3.875 194.238 4.2168V17.8838C194.238 18.5283 194.282 19.0361 194.37 19.4072C194.458 19.7783 194.629 20.0518 194.883 20.2275C195.137 20.4131 195.488 20.5352 195.938 20.5938C196.396 20.6426 197.026 20.667 197.827 20.667C198.608 20.667 199.365 20.623 200.098 20.5352C200.84 20.4375 201.372 20.2324 201.694 19.9199C202.192 19.4219 202.7 18.7236 203.218 17.8252C203.745 16.917 204.165 16.0869 204.478 15.335H205.547Z" fill="#0E6C67"/>
</svg>
