<svg width="667" height="652" viewBox="0 0 667 652" fill="none" xmlns="http://www.w3.org/2000/svg">
<path d="M9.76221 167.134C-36.6947 -1.21149 135.399 -18.347 259.594 32.4845C332.056 58.6265 379.643 -22.6731 469.409 9.77252C559.175 42.2182 451.564 144.422 588.917 196.876C726.271 249.33 659.216 484.02 539.167 486.723C419.118 489.427 452.105 528.903 332.056 619.21C212.007 709.517 9.76249 584.06 60.0532 451.574C110.344 319.088 60.0526 349.37 9.76221 167.134Z" stroke="white" stroke-width="3"/>
<path d="M268.136 298.148C262.776 282.114 287.882 256.247 308.071 267.286C326.558 277.395 345.383 270.578 357.821 275.084C390.564 286.948 378.52 293.229 393.157 307.319C410.968 324.466 419.467 369.365 378.52 369.365C344.842 369.365 354.919 385.722 329.701 392.97C304.483 400.217 275.884 387.881 275.884 355.401C275.884 343.204 277.063 324.853 268.136 298.148Z" stroke="white" stroke-width="3"/>
<path d="M33.2474 178.226C-9.47349 23.7275 149.258 5.79827 263.998 53.0123C331.553 77.6967 376.525 3.16818 459.261 33.0739C543.844 63.6485 444.92 157.132 571.118 206.098C697.603 255.342 637.417 472.779 524.559 475.237C412.363 477.695 443.266 515.069 331.838 597.825C220.411 680.581 33.952 565.408 79.6708 442.013C125.39 320.462 79.7776 346.324 33.2474 178.226Z" stroke="white" stroke-width="3"/>
<path d="M56.7327 189.319C17.7479 48.667 163.117 29.944 268.401 73.5405C331.05 96.7674 373.407 29.0099 449.114 56.3758C528.512 85.0794 438.277 169.843 553.318 215.321C668.936 261.356 615.619 461.538 509.952 463.75C405.607 465.963 434.428 501.235 331.621 576.44C228.814 651.645 58.1417 546.756 99.2886 432.453C140.436 321.837 99.5026 343.277 56.7327 189.319Z" stroke="white" stroke-width="3"/>
<path d="M80.2182 200.413C44.9694 73.6071 176.976 54.0903 272.805 94.0694C330.547 115.839 370.29 54.8523 438.966 79.6782C513.181 106.511 431.633 182.554 535.519 224.545C640.269 267.369 593.82 450.298 495.345 452.265C398.852 454.231 425.59 487.402 331.404 555.056C237.218 622.71 82.3315 528.105 118.907 422.893C155.482 323.213 119.228 340.232 80.2182 200.413Z" stroke="white" stroke-width="3"/>
<path d="M103.704 211.507C72.1911 98.548 190.835 78.2375 277.209 114.599C330.044 134.911 367.172 80.6955 428.819 102.982C497.85 127.943 424.99 195.266 517.719 233.769C611.603 273.384 572.022 439.059 480.737 440.78C392.096 442.5 416.752 473.569 331.187 533.673C245.622 593.776 106.522 509.454 138.525 413.334C170.528 324.589 138.953 337.187 103.704 211.507Z" stroke="white" stroke-width="3"/>
<path d="M127.19 223.164C99.4131 124.051 204.695 102.947 281.614 135.691C329.542 154.545 364.055 107.101 418.672 126.847C482.519 149.937 418.347 208.54 499.92 243.556C582.936 279.961 550.224 428.382 466.131 429.857C385.341 431.332 407.914 460.299 330.97 512.852C254.026 565.404 130.712 491.366 158.143 404.337C185.574 326.528 158.679 334.704 127.19 223.164Z" stroke="white" stroke-width="3"/>
<path d="M150.676 235.485C126.636 150.219 218.555 128.321 286.019 157.447C329.04 174.844 360.939 134.171 408.526 151.377C467.189 172.597 411.705 222.478 482.122 254.007C554.271 287.202 528.427 418.37 451.524 419.599C378.587 420.828 399.077 447.693 330.755 492.695C262.432 537.697 154.903 473.942 177.762 396.005C200.622 329.131 178.405 332.886 150.676 235.485Z" stroke="white" stroke-width="3"/>
<path d="M174.163 247.844C153.859 176.424 232.415 153.732 290.424 179.241C328.538 195.18 357.823 161.278 398.38 175.944C451.859 195.293 405.063 236.454 464.324 264.495C525.605 294.481 506.63 408.395 436.919 409.378C371.833 410.361 390.241 435.125 330.539 472.576C270.837 510.027 179.094 456.556 197.382 387.71C215.669 331.771 198.132 331.105 174.163 247.844Z" stroke="white" stroke-width="3"/>
<path d="M197.651 260.255C181.083 202.682 246.277 179.196 294.831 201.088C328.038 215.569 354.708 188.438 388.235 200.565C436.53 218.042 398.422 250.483 446.527 275.037C496.941 301.813 484.834 398.473 422.314 399.21C365.08 399.948 381.405 422.61 330.324 452.51C279.243 482.41 203.286 439.222 217.002 379.468C230.718 334.465 217.86 329.378 197.651 260.255Z" stroke="white" stroke-width="3"/>
<path d="M221.141 272.745C208.308 229.018 260.14 204.739 299.239 223.013C327.539 236.037 351.594 215.677 378.091 225.263C421.202 240.87 391.782 264.591 428.731 285.657C468.278 309.223 463.04 388.629 407.71 389.121C358.329 389.613 372.571 410.173 330.111 432.522C287.651 454.871 227.48 421.967 236.624 371.305C245.768 337.237 237.589 327.728 221.141 272.745Z" stroke="white" stroke-width="3"/>
<path d="M244.634 285.354C235.537 255.474 274.007 230.401 303.65 245.057C327.044 256.624 348.484 243.035 367.951 250.081C405.878 263.817 385.146 278.817 410.939 296.396C439.618 316.752 441.249 378.905 393.11 379.151C351.581 379.397 363.74 397.855 329.901 412.654C296.062 427.452 251.678 404.832 256.249 363.26C260.821 340.128 257.322 326.198 244.634 285.354Z" stroke="white" stroke-width="3"/>
</svg>
